<svg xmlns="http://www.w3.org/2000/svg" version="1.1" xmlns:xlink="http://www.w3.org/1999/xlink" width="22" height="22" x="0" y="0" viewBox="0 0 512 512" style="enable-background:new 0 0 512 512" xml:space="preserve" class=""><g><path fill-rule="evenodd" d="M403.99 76.54v207.04c-5.56-1.03-11.25-1.72-17.02-2.06V101.57c0-4.42-3.58-8-8-8H37.81c-4.42 0-8 3.58-8 8v273.62c0 4.42 3.58 8 8 8H246.9c-1.45 5.54-2.56 11.23-3.31 17.02H39.14c-14.49 0-26.35-11.86-26.35-26.35V76.54zm.27 304.65-20.53 20.53c-10.67-3.16-21.53 4.81-21.53 16.08 0 9.26 7.51 16.77 16.77 16.77 11.27 0 19.24-10.87 16.08-21.53l20.53-20.53c3.12-3.12 3.12-8.19 0-11.31a7.988 7.988 0 0 0-11.32-.01zM293.76 503l42.29-42.29c-9.21-9.21-15.47-21.36-17.26-34.92h-60.06c1.98 30.09 14.99 57.17 35.03 77.21zm25.04-93.21c1.42-10.78 5.67-20.66 11.97-28.89l-42.47-42.47c-16.93 19.32-27.77 44.1-29.56 71.36zm23.28-40.2a60.358 60.358 0 0 1 28.89-11.97v-60.06c-27.26 1.79-52.04 12.63-71.36 29.56zm44.89-11.97c10.78 1.42 20.66 5.67 28.89 11.97l42.47-42.47c-19.32-16.93-44.1-27.77-71.36-29.56zm40.21 23.28 42.47-42.47c16.93 19.32 27.78 44.1 29.57 71.36h-60.06a60.568 60.568 0 0 0-11.98-28.89zm11.97 44.89c-1.79 13.56-8.05 25.71-17.26 34.92L464.18 503c20.04-20.04 33.06-47.12 35.03-77.21zM39.14 9h338.51C392.14 9 404 20.86 404 35.35v25.2H12.79v-25.2C12.79 20.86 24.64 9 39.14 9zm80.06 16.25c-5.26 0-9.52 4.26-9.52 9.52s4.26 9.52 9.52 9.52 9.52-4.26 9.52-9.52-4.26-9.52-9.52-9.52zm246.17 1.52H250.7c-4.42 0-8 3.58-8 8s3.58 8 8 8h114.67c4.42 0 8-3.58 8-8s-3.58-8-8-8zM84.31 25.25c-5.26 0-9.52 4.26-9.52 9.52s4.26 9.52 9.52 9.52 9.52-4.26 9.52-9.52-4.26-9.52-9.52-9.52zm-34.89 0c-5.26 0-9.52 4.26-9.52 9.52s4.26 9.52 9.52 9.52 9.52-4.26 9.52-9.52-4.27-9.52-9.52-9.52zm61.72 193.78c-10.13-1.6-19.31 6.21-19.31 16.49 0 9.22 7.47 16.69 16.69 16.69 12.17 0 20.1-12.55 15.26-23.46l48.7-63.32c3.6.57 7.23-.05 10.36-1.7l42.22 28.29c-.89 9.81 6.8 18.23 16.62 18.23 10.92 0 18.82-10.28 16.19-20.77l41.35-38.18-.96 5.31c-.78 4.33 2.11 8.47 6.44 9.25s8.47-2.11 9.25-6.44l4.95-27.24c1.06-5.13-2.53-9.55-7.39-9.78l-28.07-1.32c-4.4-.21-8.14 3.19-8.34 7.59-.21 4.4 3.19 8.14 7.59 8.34l8.06.38-43.7 40.35a16.73 16.73 0 0 0-13.1 1.02l-42.22-28.29c.89-9.81-6.8-18.23-16.62-18.23-12.17 0-20.1 12.55-15.26 23.46zm183.23-41.18h27.79c2.85 0 5.17 2.32 5.17 5.17v108.39a135.85 135.85 0 0 1 43.64-9.88V109.57H45.81v257.62h206.36c8.09-20.24 20.88-38.1 37.03-52.21V183.02c0-2.85 2.32-5.17 5.17-5.17zM94.62 281.28c-2.85 0-5.17 2.32-5.17 5.17v56.08c0 2.85 2.32 5.17 5.17 5.17h27.79c2.85 0 5.17-2.32 5.17-5.17v-56.08c0-2.85-2.32-5.17-5.17-5.17zm66.58-73.61c-2.85 0-5.17 2.32-5.17 5.17v129.68c0 2.85 2.32 5.17 5.17 5.17H189c2.85 0 5.17-2.32 5.17-5.17V212.84c0-2.85-2.32-5.17-5.17-5.17zm66.59 31.66c-2.85 0-5.17 2.32-5.17 5.17v98.03c0 2.85 2.32 5.17 5.17 5.17h27.79c2.85 0 5.17-2.32 5.17-5.17V244.5c0-2.85-2.32-5.17-5.17-5.17z" clip-rule="evenodd" fill="#3c4043" opacity="1" data-original="#000000" class=""></path></g></svg>