<svg xmlns="http://www.w3.org/2000/svg" version="1.1" xmlns:xlink="http://www.w3.org/1999/xlink" width="24" height="24" x="0" y="0" viewBox="0 0 510 510" style="enable-background:new 0 0 512 512" xml:space="preserve" fill-rule="evenodd" class=""><g><path d="M189.552 399.988H78.758c-17.613 0-32.031-14.419-32.031-32.032V147.668c0-17.613 14.418-32.031 32.031-32.031h93.544c-9.553 6.741-16.282 16.252-19.729 26.801H77.967c-2.46 0-4.467 1.979-4.467 4.439v199.169h363V146.877a4.446 4.446 0 0 0-4.438-4.439h-52.054a28.544 28.544 0 0 0-2.635-6.072l-11.968-20.729h65.837c17.613 0 32.031 14.418 32.031 32.031v220.288c0 17.613-14.418 32.032-32.031 32.032H320.476v50.887h48.739c15.012 0 27.31 9.811 27.31 21.797v21.826H113.503v-21.826c0-11.986 12.298-21.797 27.31-21.797h48.739zm65.42-228.477-33.64 19.422c-17.619 10.172-40.346 4.061-50.503-13.532-10.158-17.594-4.087-40.331 13.532-50.503l33.64-19.422zm8 13.856 25.721 44.551-6.16 3.557c-9.684 5.591-22.16 2.248-27.751-7.436l-15.564-26.958zm56.607-24.743c-16.437.332-33.012 1.881-49.338 6.094-.346-1.096-39.957-69.591-40.924-70.559 11.218-12.497 20.698-26.945 29.254-41.205zm30.705-122.618c-1.143 4.265-5.534 6.8-9.798 5.657a8.004 8.004 0 0 1-5.657-9.798l5.475-20.433c1.143-4.265 5.533-6.8 9.798-5.657s6.799 5.533 5.657 9.798zm26.057 68.065c-4.263-1.147-6.794-5.54-5.647-9.804s5.54-6.794 9.804-5.647l20.447 5.5a8.005 8.005 0 0 1 5.648 9.804 8.005 8.005 0 0 1-9.804 5.647zm1.059-39.407a8.003 8.003 0 0 1-10.928-2.928c-2.207-3.824-.895-8.721 2.928-10.928l18.354-10.597a8.004 8.004 0 0 1 10.928 2.928 8.004 8.004 0 0 1-2.928 10.929zm-13.883 77.702c2.107 3.651 2.057 7.837-.127 11.431-2.185 3.593-5.843 5.57-10.063 5.404-5.047-.196-10.135-.402-15.244-.528L267.874 39.067c2.648-4.605 5.264-9.089 7.786-13.385 2.109-3.549 5.622-5.544 9.728-5.515 4.107.029 7.612 2.061 9.661 5.61zm-32.213-87.793c9.358-2.587 19.638 1.339 24.718 10.138 5.081 8.799 3.341 19.665-3.579 26.475zm6.223 280.291-40.857-.352-.043-35.673c-.006-8.212.722-16.037 6.822-21.531l.002-.002c7.983-7.197 22.433-18.101 33.662-31.285 3.042-2.575 7.497-2.813 10.326.023l.002.002c2.807 2.809 2.738 6.574.078 10.204-6.341 7.121-13.132 13.212-20.18 20.25a4.677 4.677 0 0 0-.005 6.61 4.677 4.677 0 0 0 6.611.005c7.234-7.224 14.192-13.481 20.694-20.804l3.518-4.3c5.03-6.202 7.682-13.026 7.65-21.018l-.186-29.725c-.081-20.559 8.42-24.389 14.847-20.447 2.21 1.356 3.998 3.49 4.066 5.875l2.559 71.048v.005c.205 6.988-2.339 13.049-7.273 17.995l-40.924 40.92a4.672 4.672 0 0 0-1.369 3.305zm-165.026 0 .001-8.895a4.673 4.673 0 0 0-1.37-3.305l-40.924-40.92c-4.934-4.946-7.478-11.007-7.273-17.995l.001-.005 2.558-71.048c.068-2.385 1.856-4.519 4.066-5.875 6.428-3.942 14.928-.112 14.848 20.447l-.186 29.725c-.033 7.992 2.619 14.816 7.65 21.018l3.517 4.3c6.502 7.323 13.46 13.58 20.694 20.804a4.675 4.675 0 0 0 6.606-6.615c-7.048-7.038-13.839-13.129-20.179-20.25-2.661-3.63-2.73-7.395.077-10.204l.002-.002c2.83-2.836 7.285-2.598 10.326-.023 11.229 13.184 25.679 24.088 33.663 31.285l.001.002c6.1 5.494 6.829 13.319 6.823 21.531l-.044 35.673z" fill="#3c4043" opacity="1" data-original="#000000" class=""></path></g></svg>