<svg xmlns="http://www.w3.org/2000/svg" version="1.1" xmlns:xlink="http://www.w3.org/1999/xlink" width="24" height="24" x="0" y="0" viewBox="0 0 716 716" style="enable-background:new 0 0 512 512" xml:space="preserve" class=""><g><path d="M499.8 485.699c-.2-1.299-.5-2.6-.899-3.799-3.101-12-10.301-33.9-13.5-43.602-.4-1.699-.9-3.398-1.601-4.898a23.32 23.32 0 0 0-9.2-10.201c-.3-.199-.699-.4-1.399-.799-.3-.102-.5-.301-.8-.4-7.801-3.701-32-13.301-32-13.301C428.3 403.5 415.8 399 403.1 394.5c-2.3 9.5-23.899 72.4-27.3 81.1l-2.7-58.4c.9-1.4 1.5-3 2.301-4.5l9-17.799c-6.301 5.299-15.9 8.6-26.5 8.6-10.4 0-19.7-3.201-26-8.301l8.8 17.4c.7 1.5 1.399 3.1 2.3 4.5l-2.7 58.4c-3.399-8.701-25-71.6-27.3-81.1-12.7 4.5-25.2 9-37.3 14.199 0 0-24.1 9.699-32 13.301-.3.1-.5.299-.8.398-.7.301-1.2.602-1.4.801-4 2.4-7.2 5.9-9.2 10.199-.7 1.602-1.3 3.201-1.6 4.9-3.2 9.801-10.4 31.6-13.5 43.6-.4 1.201-.7 2.5-.9 3.801-.2 1.199-.3 2.4-.3 3.6 0 12.9 10.4 23.301 23.3 23.301H477.1c12.9 0 23.301-10.4 23.301-23.301-.301-1.199-.401-2.299-.601-3.5zM418.7 286.2c0-4.1.8-19 .8-22.4 0-33.3-27-60.3-60.3-60.3h-2.6c-33.3 0-60.3 27-60.3 60.3 0 3.4.8 18.3.8 22.4-1.5.1-14.899-3.2-13.5 13 3.101 34.3 16.101 27.6 16.5 27.6 6.4 20.7 16.4 33.8 26.2 42.201 15.3 13.1 30.101 14.5 30.3 14.5h2.4c.3 0 15-1.4 30.2-14.4 9.8-8.4 19.899-21.6 26.399-42.4.4 0 13.5 6.6 16.5-27.6C433.6 283 420.1 286.2 418.7 286.2z" fill="#3c4043" opacity="1" data-original="#000000"></path><path d="m716 359.5-88.2-88.8-76.8 97.4 39.3 31 15.7-19.9C594.5 508.4 485.7 610 353.5 610c-31 0-61.2-5.5-89.8-16.4L244.5 644c34.8 13.199 71.5 19.9 109 19.9 82.1 0 159.4-32 217.4-90.102 53.8-53.799 85.199-124 89.5-199.199l20 20.199L716 359.5zM0 356.5l88.2 88.799 76.7-97.399-39.3-31-15.6 20c11.5-129.2 120.3-230.8 252.5-230.8 31 0 61.2 5.5 89.8 16.4L471.4 72c-34.801-13.2-71.5-19.9-109-19.9-82.101 0-159.4 32-217.4 90.1-53.8 53.8-85.2 124-89.5 199.3l-20-20.2L0 356.5z" fill="#3c4043" opacity="1" data-original="#000000"></path></g></svg>