<svg xmlns="http://www.w3.org/2000/svg" version="1.1" xmlns:xlink="http://www.w3.org/1999/xlink" width="24" height="24" x="0" y="0" viewBox="0 0 512 512" style="enable-background:new 0 0 512 512" xml:space="preserve" class=""><g><path fill-rule="evenodd" d="m127.626 437.004 18.697-10.794a8.218 8.218 0 0 1 6.232-.816l122.761 32.868c15.473 4.147 30.109 2.273 43.79-6.148 56.411-34.728 112.832-69.445 169.241-104.179 8.58-5.282 9.691-19.711 4.607-27.902-11.213-18.067-42.27-3.027-55.175 4.489l-93.258 54.318c-14.514 8.452-30.521 11.016-47.035 8.238-25.497-4.147-49.304-11.748-74.08-18.387a8.265 8.265 0 0 1 4.267-15.969c20.169 5.403 40.16 11.899 60.607 16.126 10.386 1.271 18.956-2.006 21.838-12.763 2.615-9.76-3.54-18.957-12.758-22.151-28.007-5.127-55.189-14.954-76.563-22.681-30.979-11.199-39.262-13.786-69.803 3.895L81.45 355.412zm-75.219-99.4 76.93 135.93c1.473 2.609.517 5.984-2.086 7.458-8.515 4.967-17.896 9.64-26.171 14.812-2.61 1.473-5.985.517-7.458-2.086L16.695 357.793c-1.475-2.607-.518-5.991 2.084-7.463l26.171-14.812c2.609-1.473 5.984-.517 7.457 2.086zm.132 24.194a9.341 9.341 0 0 0-10.595-7.892 9.341 9.341 0 0 0-7.892 10.595 9.343 9.343 0 1 0 18.487-2.703zM224.24 81.276v106.941h-32.393V81.276H177.73c-3.994 0-6.373-4.421-4.173-7.754l30.314-45.925c1.973-2.99 6.372-2.99 8.345 0l30.314 45.925c2.2 3.333-.179 7.754-4.173 7.754zm112.818 51.789c47.459 0 85.933 38.473 85.933 85.933 0 47.459-38.474 85.933-85.933 85.933s-85.933-38.474-85.933-85.933 38.474-85.933 85.933-85.933zm32.674 56.734c-4.481-10.672-13.382-17.882-24.674-20.228v-4.952a8 8 0 0 0-16 0v5.07c-14.219 3.117-25.413 14.182-24.67 29.471.857 17.659 16.094 24.879 31.467 27.403 8.311 1.364 20.557 4.243 20.796 14.711.208 8.766-11.607 11.811-18.658 11.978-8.838.211-18.437-3.755-20.753-13.046a7.982 7.982 0 0 0-15.5 3.812c3.331 13.36 14.175 21.875 27.317 24.403v4.953a8 8 0 0 0 16 0v-4.799c14.437-2.413 27.914-11.569 27.531-27.677-.469-19.644-17.181-27.298-34.171-30.086-6.98-1.146-17.671-3.707-18.092-12.404-.361-7.441 5.868-11.896 12.495-13.23 9.102-1.833 18.425 1.906 22.162 10.807a7.997 7.997 0 0 0 10.469 4.281 7.994 7.994 0 0 0 4.281-10.467zm105.525-117.58H344.878c-11.409 0-20.744-9.334-20.744-20.743v-15.23c0-11.409 9.335-20.743 20.744-20.743h130.379c11.409 0 20.743 9.334 20.743 20.743v15.229c0 11.409-9.335 20.744-20.743 20.744zm0 134.461h-37.009c.486 4.039.743 8.148.743 12.318 0 15.914-3.65 30.976-10.156 44.397h46.422c11.409 0 20.743-9.334 20.743-20.743v-15.229c0-11.409-9.335-20.743-20.743-20.743zm0-7.011c11.409 0 20.743-9.334 20.743-20.743v-15.229c0-11.409-9.335-20.743-20.743-20.743h-70.332c16.329 14.586 27.934 34.351 32.228 56.715zm0-120.44H344.878c-11.409 0-20.744 9.334-20.744 20.743v15.229c0 .9.058 1.787.171 2.657 4.178-.522 8.434-.793 12.753-.793 22.032 0 42.433 6.992 59.103 18.879h79.096c11.409 0 20.743-9.334 20.743-20.743V99.972c0-11.409-9.335-20.743-20.743-20.743z" clip-rule="evenodd" fill="#3c4043" opacity="1" data-original="#000000" class=""></path></g></svg>