<svg xmlns="http://www.w3.org/2000/svg" version="1.1" xmlns:xlink="http://www.w3.org/1999/xlink" width="20" height="20" x="0" y="0" viewBox="0 0 512 512" style="enable-background:new 0 0 512 512" xml:space="preserve" class=""><g><path fill-rule="evenodd" d="M376.33 493.93c0 4.56-3.71 8.28-8.28 8.28H143.92c-4.54 0-8.25-3.71-8.25-8.28 0-4.54 3.71-8.25 8.25-8.25h38.95l9.92-66.59h126.43l9.92 66.59h38.92c4.56 0 8.27 3.71 8.27 8.25zM512 41.94V378.7c0 13.15-10.74 23.9-23.9 23.9H23.87C10.75 402.59 0 391.85 0 378.7V41.94c0-8.84 3.6-16.89 9.44-22.71 5.81-5.8 13.86-9.43 22.71-9.43h447.7c8.84 0 16.89 3.63 22.71 9.44 5.84 5.81 9.44 13.86 9.44 22.7zm-16.53 0c0-4.28-1.76-8.19-4.59-11.03-2.83-2.83-6.75-4.59-11.03-4.59H32.15c-4.31 0-8.19 1.76-11.03 4.59-2.83 2.83-4.62 6.75-4.62 11.03v287.35h478.97zm-341.35 96.21h-27.3c-2.83 0-5.16 2.32-5.16 5.19v143.15c0 2.83 2.32 5.16 5.16 5.16h27.3c2.83 0 5.16-2.32 5.16-5.16V143.34c0-2.87-2.32-5.19-5.16-5.19zm-73.61 68.74h-27.3c-2.83 0-5.16 2.32-5.16 5.16v74.44c0 2.83 2.32 5.16 5.16 5.16h27.3c2.83 0 5.16-2.32 5.16-5.16v-74.44c0-2.84-2.33-5.16-5.16-5.16zm147.23-24.66h-27.3c-2.83 0-5.16 2.32-5.16 5.16v99.1c0 2.83 2.32 5.16 5.16 5.16h27.3c2.83 0 5.16-2.32 5.16-5.16v-99.1c0-2.84-2.33-5.16-5.16-5.16zm178.92-126v56.75h56.75c-3.71-29.6-27.15-53.04-56.75-56.75zm-8.25 130.53c33.39 0 60.95-24.97 65-57.26h-65c-4.56 0-8.25-3.71-8.25-8.28v-65c-32.29 4.05-57.26 31.61-57.26 65 0 36.21 29.31 65.54 65.51 65.54zm65.54 96.61H340.1c-4.56 0-8.28 3.71-8.28 8.28s3.71 8.25 8.28 8.25h123.85c4.56 0 8.25-3.69 8.25-8.25s-3.69-8.28-8.25-8.28zm-148.25 0h-4.54c-4.56 0-8.25 3.71-8.25 8.28s3.69 8.25 8.25 8.25h4.54c4.56 0 8.28-3.69 8.28-8.25s-3.72-8.28-8.28-8.28zm148.25-29.94H340.1c-4.56 0-8.28 3.69-8.28 8.25s3.71 8.25 8.28 8.25h123.85c4.56 0 8.25-3.68 8.25-8.25 0-4.56-3.69-8.25-8.25-8.25zm-148.25 0h-4.54c-4.56 0-8.25 3.69-8.25 8.25s3.69 8.25 8.25 8.25h4.54c4.56 0 8.28-3.68 8.28-8.25-.01-4.56-3.72-8.25-8.28-8.25zm148.25-29.96H340.1c-4.56 0-8.28 3.71-8.28 8.28 0 4.54 3.71 8.25 8.28 8.25h123.85c4.56 0 8.25-3.71 8.25-8.25 0-4.56-3.69-8.28-8.25-8.28zm-148.25 0h-4.54c-4.56 0-8.25 3.71-8.25 8.28 0 4.54 3.69 8.25 8.25 8.25h4.54c4.56 0 8.28-3.71 8.28-8.25-.01-4.56-3.72-8.28-8.28-8.28zM214.08 99.8c-3.8 0-7.31 1.11-10.26 3.06l-1.64-.99-41.33-24.75-1.64-.96c.06-.54.08-1.08.08-1.64 0-10.37-8.42-18.79-18.82-18.79-10.37 0-18.79 8.42-18.79 18.79 0 1.93.28 3.77.82 5.53l-1.36 1.28-46.16 43.07-1.39 1.28c-2.1-.79-4.37-1.22-6.72-1.22-10.4 0-18.82 8.42-18.82 18.79 0 10.38 8.42 18.79 18.82 18.79 10.38 0 18.79-8.42 18.79-18.79 0-1.93-.28-3.77-.82-5.53l1.36-1.28 46.15-43.06 1.39-1.3c2.1.79 4.37 1.25 6.72 1.25 3.8 0 7.34-1.13 10.29-3.06l1.64.96L193.72 116l1.62.96c-.03.54-.06 1.08-.06 1.62 0 10.4 8.42 18.82 18.79 18.82 10.4 0 18.82-8.42 18.82-18.82.01-10.36-8.41-18.78-18.81-18.78z" clip-rule="evenodd" fill="#3c4043" opacity="1" data-original="#000000"></path></g></svg>