<svg xmlns="http://www.w3.org/2000/svg" version="1.1" xmlns:xlink="http://www.w3.org/1999/xlink" width="80" height="80" x="0" y="0" viewBox="0 0 32 32" style="enable-background:new 0 0 512 512" xml:space="preserve" class=""><g><path d="M8.47 19.44c0-.187.1-.35.25-.44l4.12-3.006v-4.355a.513.513 0 0 1 1.025 0v10.73l2.278 1.662 2.988-2.18a.509.509 0 0 1 .61.006l2.98 2.174 2.277-1.662V12.21l-2.705-2.705h-4.398a.512.512 0 1 1 0-1.026h4.61c.137 0 .266.054.363.15l3.005 3.007c.093.093.15.22.15.362v3.996l4.125 3.008c.146.09.244.252.244.437v10.435c0 .29-.218.526-.513.526H8.996a.512.512 0 0 1-.525-.513zm7.183-15.085a.512.512 0 0 1 .317.973l-.638.207.395.543a.513.513 0 0 1-.83.6l-.392-.54-.394.54a.513.513 0 0 1-.829-.6l.395-.543-.638-.207a.51.51 0 1 1 .317-.973l.636.208v-.67a.513.513 0 0 1 1.025 0v.67zm-4.687 0a.512.512 0 0 1 .317.973l-.638.207.395.543a.513.513 0 0 1-.829.6l-.393-.54-.393.54a.513.513 0 0 1-.83-.6l.395-.543-.638-.207a.511.511 0 0 1 .317-.973l.636.208v-.67a.513.513 0 0 1 1.025 0v.67zm-4.686 0a.512.512 0 0 1 .317.973l-.638.207.395.543a.512.512 0 1 1-.83.6l-.392-.54-.394.54a.512.512 0 0 1-.83-.6l.396-.543-.638-.207a.512.512 0 0 1 .317-.973l.636.207v-.67a.512.512 0 1 1 1.025 0v.67zM4.032 1.61h11.572a2.44 2.44 0 0 1 2.432 2.432V6.23a2.44 2.44 0 0 1-2.18 2.419v2.59a.513.513 0 0 1-.893.343l-3.022-2.92H4.032A2.438 2.438 0 0 1 1.6 6.23V4.04A2.44 2.44 0 0 1 4.032 1.61zm11.572 1.024H4.032a1.41 1.41 0 0 0-1.407 1.408V6.23c0 .773.633 1.407 1.407 1.407h8.114a.51.51 0 0 1 .354.145l2.331 2.251v-1.87c0-.29.218-.526.512-.526h.261c.772 0 1.407-.634 1.407-1.407V4.04a1.41 1.41 0 0 0-1.407-1.408zm5.548 12.54a1.415 1.415 0 0 1 1.382 1.412v2.665c0 .775-.634 1.41-1.409 1.41h-3.386c-.776 0-1.41-.634-1.41-1.41v-2.665c0-.765.62-1.396 1.382-1.411v-.826c0-.946.774-1.72 1.72-1.72.947 0 1.72.773 1.72 1.72zm-3.423 1.025a.387.387 0 0 0-.375.387v2.665c0 .21.174.385.385.385h3.386a.385.385 0 0 0 .385-.385v-2.665a.386.386 0 0 0-.375-.387h-3.406zm1.703-2.545a.698.698 0 0 0-.695.695v.826h1.39v-.826a.698.698 0 0 0-.695-.695zm-6.593 3.604-2.99 2.182 2.99 2.182zm13.184 4.364 2.991-2.182-2.99-2.182zm-2.437 3.042 5.78 4.218v-8.437l-5.78 4.219zm-14.09-4.219v8.437l5.78-4.218-5.78-4.219zm1.054 8.93h17.762l-8.88-6.479-8.882 6.48" fill="#000000" opacity="1" data-original="#000000" class=""></path></g></svg>