<svg xmlns="http://www.w3.org/2000/svg" xmlns:xlink="http://www.w3.org/1999/xlink" width="112" height="112" viewBox="0 0 112 112"><title>Generic empty illustration</title><defs><path d="M21.475.402v-.17l-.105.084-.087-.07v.14C19.4 1.928 4.256 15.034 4.256 37.91c0 24.394 7.766 31.326 7.766 31.326h17.965s8.306-6.932 8.306-31.326C38.29 15.046 23.35 1.953 21.476.402z" id="a"/></defs><g fill="none" fill-rule="evenodd"><path d="M0 0h112v112H0z"/><g transform="translate(53 23)"><g transform="translate(4.052)"><path d="M.007 55.246l11.3-9.507 2.598 18.327L1.117 69.82.007 55.246zm42.343.033l-1.11 14.573L28.452 64.1l2.597-18.328 11.3 9.507z" fill="#ECEFF1"/><mask id="b" fill="#fff"><use xlink:href="#a"/></mask><use fill="#ECEFF1" xlink:href="#a"/><path d="M3.19 64.966h37.82v4.27H3.19v-4.27zm-.797-8.86H39.62v4.185H2.393v-4.183zm8.11 7.384c-.514 0-.93-.386-.93-.86 0-.477.416-.863.93-.863s.93.386.93.862c0 .474-.416.86-.93.86zm3.812 0c-.514 0-.93-.386-.93-.86 0-.477.416-.863.93-.863s.93.386.93.862c0 .474-.416.86-.93.86zm3.81 0c-.513 0-.93-.386-.93-.86 0-.477.417-.863.93-.863.515 0 .932.386.932.862 0 .474-.417.86-.93.86zm3.813 0c-.515 0-.93-.386-.93-.86 0-.477.415-.863.93-.863.514 0 .93.386.93.862 0 .474-.416.86-.93.86zm3.81 0c-.513 0-.93-.386-.93-.86 0-.477.417-.863.93-.863.515 0 .932.386.932.862 0 .474-.417.86-.93.86zm3.812 0c-.514 0-.93-.386-.93-.86 0-.477.416-.863.93-.863s.93.386.93.862c0 .474-.416.86-.93.86zm3.812 0c-.514 0-.93-.386-.93-.86 0-.477.416-.863.93-.863s.93.386.93.862c0 .474-.416.86-.93.86zM5.85-4.676h28.718v16.734H5.85V-4.676z" fill="#CFD8DC" mask="url(#b)"/><path d="M21.475.246v68.99h8.51s8.285-6.932 8.285-31.326C38.27 13.517 21.475.246 21.475.246z" fill-opacity=".1" fill="#5F7D8C" mask="url(#b)"/></g><path fill="#CFD8DC" d="M19.08 69.264h6.582v5.616h-8.78"/><path fill="#C2CBCF" d="M32.244 69.264h-6.582v5.616h8.78"/><path d="M4.727 45.552V78h-2.31C1.176 75.34 0 72.24 0 63s4.727-17.448 4.727-17.448zM47.273 45.552V78H44.96c-1.237-2.66-2.415-5.76-2.415-15s4.728-17.448 4.728-17.448z" fill="#CFD8DC"/><path d="M4.727 45.552V78H7.04c1.237-2.66 2.415-5.76 2.415-15S4.727 45.552 4.727 45.552zM47.273 45.552V78h2.31C50.824 75.34 52 72.24 52 63s-4.727-17.448-4.727-17.448z" fill="#B0BEC5"/><circle fill="#FFF" cx="25" cy="29" r="8"/></g><rect fill="#ECEFF1" y="101" width="112" height="4" rx="2"/><path fill="#B0BEC5" d="M8 93h28v8H8z"/><path d="M10 63.998c0-1.103.897-1.998 2.005-1.998h19.99c1.107 0 2.005.894 2.005 1.998V93H10V63.998zM17 78v2h10v-2H17zm-2-10v8h14v-8H15z" fill="#CFD8DC"/><path d="M43.896 91.975v-3h-.145v3h.146zm0-3v3h-.145v-3h.146zm-6.504-3.492V78.7c0-1.38-1.12-2.502-2.5-2.502H33.8v-3h1.092c3.037 0 5.5 2.466 5.5 5.502v6.783c0 1.905 1.528 3.453 3.43 3.49 1.904-.037 3.433-1.586 3.433-3.494V65.42c0-3.586 2.91-6.494 6.5-6.494h7.607v3h-7.607c-1.933 0-3.5 1.565-3.5 3.495v20.06c0 3.565-2.873 6.456-6.432 6.495-3.56-.04-6.43-2.93-6.43-6.492z" fill="#CFD8DC" fill-rule="nonzero"/></g></svg>