<svg xmlns="http://www.w3.org/2000/svg" version="1.1" xmlns:xlink="http://www.w3.org/1999/xlink" width="24" height="24" x="0" y="0" viewBox="0 0 173.397 173.397" style="enable-background:new 0 0 512 512" xml:space="preserve" fill-rule="evenodd" class=""><g><path d="M90.055 60.703v3.76a3.053 3.053 0 0 1-6.104 0v-3.76c-5.185-1.356-9.022-6.08-9.022-11.684a3.053 3.053 0 0 1 6.104 0 5.98 5.98 0 0 0 5.6 5.96 3.076 3.076 0 0 1 .74 0 5.98 5.98 0 0 0 5.602-5.96c0-3.293-2.68-5.97-5.972-5.97-6.644 0-12.074-5.39-12.074-12.042 0-5.604 3.831-10.342 9.022-11.69v-3.788a3.052 3.052 0 0 1 6.103 0v3.803c5.17 1.366 8.99 6.083 8.99 11.675a3.052 3.052 0 0 1-6.103 0c0-3.29-2.678-5.97-5.97-5.97-3.286 0-5.938 2.692-5.938 5.97 0 3.285 2.692 5.937 5.97 5.937 6.659 0 12.076 5.416 12.076 12.075 0 5.605-3.838 10.33-9.024 11.684zm68.062-10.75h4.176a3.052 3.052 0 0 0 0-6.104h-4.176v-8.956a3.053 3.053 0 0 0-6.104 0v119.922H11.103a3.052 3.052 0 0 0 0 6.103h143.961a3.053 3.053 0 0 0 3.053-3.05v-1.022h4.176a3.052 3.052 0 0 0 0-6.104h-4.176v-4.586h4.176a3.052 3.052 0 0 0 0-6.103h-4.176v-4.586h4.176a3.052 3.052 0 0 0 0-6.104h-4.176v-4.585h4.176a3.052 3.052 0 0 0 0-6.104h-4.176v-4.585h4.176a3.052 3.052 0 0 0 0-6.104h-4.176v-4.586h4.176a3.052 3.052 0 0 0 0-6.103h-4.176V92.71h4.176a3.052 3.052 0 0 0 0-6.104h-4.177v-4.585h4.177a3.052 3.052 0 0 0 0-6.104h-4.177v-4.586h4.177a3.052 3.052 0 0 0 0-6.103h-4.177v-4.586h4.177a3.052 3.052 0 0 0 0-6.104h-4.177v-4.585zM34.379 83.403 49.03 59.027a10.66 10.66 0 0 0 4.264 4.753L39.048 87.48a10.662 10.662 0 0 0-4.67-4.077zm64.47-10.056 17.393-19.22a10.617 10.617 0 0 0 3.448 5.285L102.95 77.91a10.66 10.66 0 0 0-4.101-4.563zm-15.066 4.52-18.25-15.063a9.708 9.708 0 0 0 2.2-2.638c.023-.038.045-.075.069-.112a9.207 9.207 0 0 0 1.073-2.408l19.008 15.69a10.662 10.662 0 0 0-4.1 4.53zM30.055 86.035a7.047 7.047 0 0 0-7.04 7.04 7.047 7.047 0 0 0 7.04 7.039c3.88 0 7.04-3.158 7.04-7.04s-3.161-7.039-7.04-7.039zM58.686 47.623a7.048 7.048 0 0 0-7.04 7.04c0 3.88 3.157 7.04 7.04 7.04a7.044 7.044 0 0 0 5.957-3.293c.045-.09.098-.178.157-.263a6.993 6.993 0 0 0 .926-3.485c0-3.88-3.161-7.039-7.04-7.04z" fill="#000000" opacity="1" data-original="#000000" class=""></path><path d="M93.358 75.367a7.047 7.047 0 0 0-7.04 7.04 7.047 7.047 0 0 0 7.04 7.04 7.047 7.047 0 0 0 7.04-7.04c0-3.882-3.158-7.04-7.04-7.04zM126.442 44.21a7.047 7.047 0 0 0-7.04 7.04 7.047 7.047 0 0 0 7.04 7.04c3.88-.001 7.04-3.159 7.04-7.04 0-3.883-3.161-7.04-7.04-7.04zM123.831 80.782v70.478h19.651V80.782zM92.436 95.077v56.183h19.651V95.077zM61.04 111.298v39.962h19.655v-39.962zM49.266 123.97H29.614v27.29h19.652z" fill="#000000" opacity="1" data-original="#000000" class=""></path></g></svg>