<svg xmlns="http://www.w3.org/2000/svg" version="1.1" xmlns:xlink="http://www.w3.org/1999/xlink" width="20" height="20" x="0" y="0" viewBox="0 0 512 512" style="enable-background:new 0 0 512 512" xml:space="preserve" class=""><g><path d="M495.995 386.536h-4.663V218.398a8.008 8.008 0 0 0-8.008-8.008h-50.57a8.008 8.008 0 0 0-8.008 8.008v168.138h-7.739V253.69a8.008 8.008 0 0 0-8.008-8.008h-17.277V120.008c0-.268-.014-.535-.04-.799a7.97 7.97 0 0 0-.087-.584c-.011-.064-.016-.129-.029-.192a7.638 7.638 0 0 0-.171-.678c-.008-.026-.012-.053-.02-.079a7.93 7.93 0 0 0-.238-.664c-.01-.024-.016-.048-.026-.072a7.845 7.845 0 0 0-.287-.608c-.017-.033-.031-.068-.049-.101a7.832 7.832 0 0 0-.316-.528c-.031-.048-.057-.099-.089-.146-.11-.164-.231-.32-.352-.476-.04-.05-.074-.104-.115-.154a8.116 8.116 0 0 0-.528-.583l-99.576-99.577a8.123 8.123 0 0 0-.584-.529c-.042-.034-.087-.063-.129-.097a8.617 8.617 0 0 0-.5-.371c-.041-.027-.084-.05-.125-.076a7.954 7.954 0 0 0-.549-.328l-.083-.04a7.753 7.753 0 0 0-.625-.295c-.019-.008-.039-.013-.057-.021a7.813 7.813 0 0 0-.679-.243l-.063-.016a7.976 7.976 0 0 0-.693-.174c-.063-.012-.127-.018-.19-.029-.194-.034-.388-.068-.587-.088a7.858 7.858 0 0 0-.799-.04H16.005a8.008 8.008 0 0 0-8.008 8.008v471.145a8.008 8.008 0 0 0 8.008 8.008h367.71a8.008 8.008 0 0 0 8.008-8.008v-55.488h104.272a8.008 8.008 0 0 0 8.008-8.008v-33.533a8.008 8.008 0 0 0-8.008-8.008zm-55.233-160.13h34.554v160.13h-34.554zm-39.77 35.292v124.838h-34.526V261.698zm-74.296 39.004v85.834h-34.555v-85.834zm13.379-120.543a8.008 8.008 0 0 1-8.008 8.008H220.949c-4.423 0-8.008-3.585-8.008-8.008s3.585-8.008 8.008-8.008h111.118a8.008 8.008 0 0 1 8.008 8.008zm-128.707 67.167c-4.423 0-8.008-3.585-8.008-8.008s3.585-8.008 8.008-8.008H331.67c4.423 0 8.008 3.585 8.008 8.008s-3.585 8.008-8.008 8.008zm26.362 118.29H67.595c-4.423 0-8.008-3.585-8.008-8.008s3.585-8.008 8.008-8.008H237.73c4.423 0 8.008 3.585 8.008 8.008s-3.585 8.008-8.008 8.008zm8.008 51.151a8.008 8.008 0 0 1-8.008 8.008H67.595c-4.423 0-8.008-3.585-8.008-8.008s3.585-8.008 8.008-8.008H237.73a8.008 8.008 0 0 1 8.008 8.008zm-8.008-110.282H67.595c-4.423 0-8.008-3.585-8.008-8.008s3.585-8.008 8.008-8.008H237.73c4.423 0 8.008 3.585 8.008 8.008s-3.585 8.008-8.008 8.008zm-87.108-162.283a8.008 8.008 0 0 1-8.008-8.008V82.647a8.008 8.008 0 0 1 8.008-8.008c16.433 0 31.883 6.4 43.505 18.021 11.621 11.621 18.021 27.081 18.021 43.533a8.008 8.008 0 0 1-8.008 8.008h-53.518zm-73.01-20.647c11.635-11.636 27.096-18.046 43.529-18.046a8.008 8.008 0 0 1 8.008 8.008v45.539h45.51a8.008 8.008 0 0 1 8.008 8.008c0 16.451-6.4 31.912-18.021 43.533-11.99 11.99-27.749 17.985-43.509 17.986-15.76 0-31.521-5.993-43.526-17.982-11.634-11.634-18.039-27.093-18.039-43.533s6.406-31.896 18.039-43.513zm214.53-83.796L364.382 112h-72.24zm195.846 380.31H279.471v-17.518h208.517z" fill="#000000" opacity="1" data-original="#000000" class=""></path></g></svg>