<svg width="112" height="92" viewBox="0 0 112 92" xmlns="http://www.w3.org/2000/svg"><title>AdMobMissing</title><defs><linearGradient x1="36.5372811%" y1="36.0017765%" x2="124.012302%" y2="157.721833%" id="a"><stop stop-color="#90130E" offset="0%"/><stop stop-color="#90130E" stop-opacity=".899" offset="10.09%"/><stop stop-color="#90130E" stop-opacity="0" offset="99.88%"/></linearGradient><linearGradient x1="68.2852741%" y1="22.1052296%" x2="31.7157748%" y2="77.8673016%" id="b"><stop stop-color="#EFF0F2" offset="0%"/><stop stop-color="#BABFC5" offset="99.42%"/></linearGradient></defs><g fill-rule="nonzero" fill="none"><ellipse fill="#DD3A33" cx="55.9618871" cy="59.0866626" rx="55.7589796" ry="32.7898512"/><path d="M86.7632449 55.6778166c-.9333745-.5681409-5.5596654 7.6293219-5.8843174 7.3858329-1.2580264-.81163-2.5972159-1.379771-3.9364054-2.029075-8.2786258-4.0987314-16.1108551-9.1308373-24.1459919-13.7571282-3.1653569-1.8261674-6.2901323-3.6523349-9.4554893-5.4785023-2.1914009-1.2580265-4.8697798-1.2580265-7.0611808 0L12.7425907 55.3531646c-.405815.243489-.6898855.5275595-.973956.8522115l-.6898855.486978v1.8261675c.081163 1.0551189.6087225 2.0290749 1.62326 2.6377974l38.7553315 22.1574985c2.191401 1.2580264 4.8697799 1.2580264 7.0611809 0 7.1423438-4.0987314 14.2846876-8.2380443 21.5893574-12.0527052 1.5015155-.81163 3.4494275-2.0696565 3.8146609-3.8146609l23.0097101 5.0321058c1.258026-1.3797709.568141-.649304 1.460934-2.1508194L86.7632449 55.6778166z" fill="url(#a)"/><path d="M94.3519852 22.5633134L56.8952616.64930398c-2.5972159-1.50151546-5.9248988-.1217445-6.6959473 2.80012344L42.285922 33.3579922c-.730467 2.7189604.4463965 5.6002468 2.8812864 7.0205993L82.623932 62.292601c2.5972159 1.5015154 5.9248988.1217445 6.6959473-2.8001235l7.9133923-29.9085647c.730467-2.759542-.4463965-5.6002469-2.8812864-7.0205994z" fill="#EFF0F2"/><path d="M93.3374477 22.9691284L55.9618871 1.09570047c-2.5972159-1.50151546-5.9248988-.1217445-6.6959473 2.80012343L41.393129 33.7638072c-.730467 2.7189604.4463965 5.6002468 2.8812864 7.0205993l37.3755606 21.873428c2.5972159 1.5015154 5.9248989.1217445 6.6959473-2.8001235l7.9133923-29.8679832c.6898855-2.7189605-.4869779-5.6002469-2.9218679-7.0205994z" fill="#FFF"/><path d="M93.3374477 22.9691284L55.9618871 1.09570047c-2.5972159-1.50151546-5.9248988-.1217445-6.6959473 2.80012343L41.393129 33.7638072c-.730467 2.7189604.4463965 5.6002468 2.8812864 7.0205993l37.3755606 21.873428c2.5972159 1.5015154 5.9248989.1217445 6.6959473-2.8001235l7.9133923-29.8679832c.6898855-2.7189605-.4869779-5.6002469-2.9218679-7.0205994z" fill="url(#b)" opacity=".15"/><path fill="#FFF" d="M86.2356854 58.4779401l8.0351368-30.1926353L51.3761777 3.69291641 43.3816224 33.8855517z"/><path fill="#DFE1E5" d="M86.2356854 58.4779401l8.0351368-30.1926353L51.3761777 3.69291641 43.3816224 33.8855517z"/><ellipse fill="#DFE1E5" transform="rotate(-78.96 74.211083 14.440703)" cx="74.2110829" cy="14.4407032" rx="1" ry="1"/><path d="M10.9570047 56.0836316c.081163 1.055119.6087225 2.029075 1.62326 2.6377975l38.552424 22.2792429c2.191401 1.2580265 4.8697799 1.2580265 7.0611809 0L81.731139 67.4464514c1.0145375-.6087225 1.5826785-1.62326 1.62326-2.6377975v-2.3131454h-.6898855c-.243489-.324652-.568141-.6087225-.9333745-.8522115L43.1787149 39.364054c-2.1914009-1.2580264-4.8697798-1.2580264-7.0611808 0L12.5802647 52.9182747c-.405815.243489-.6898855.5275595-.973956.8522115l-.6898855.486978.0405815 1.8261674z" fill="#DFE1E5"/><path d="M12.6208462 57.2604951l38.552424 22.279243c2.191401 1.2580264 4.8697799 1.2580264 7.0611809 0l23.5372694-13.5542207c2.2319824-1.298608 2.2319824-4.5045464 0-5.8031544L43.2192964 37.9031201c-2.1914009-1.2580265-4.8697798-1.2580265-7.0611808 0L12.6208462 51.4573407c-2.191401 1.298608-2.191401 4.5045464 0 5.8031544z" fill="#FFF"/><path d="M40.6220805 70.2871563c-.6087225 0-1.1768635-.162326-1.704423-.4463965l-9.6178152-5.5190839c-.405815-.243489-.649304-.6898855-.649304-1.1768634 0-.486978.243489-.9333745.6898855-1.1768635l3.5711719-2.0696565c1.055119-.6087225 2.3943084-.6087225 3.4088459 0l9.6178153 5.5190839c.405815.243489.649304.6898855.649304 1.1768635s-.243489.9333744-.6898855 1.1362819l-3.5711719 2.0696565c-.5275595.324652-1.0957005.486978-1.704423.486978z" fill="#EFF0F2" opacity=".7"/><g fill="#EFF0F2"><path d="M32.3028727 48.25140228l-5.03210585-2.92186793 2.02907495-1.13628197 5.0321059 2.92186793z"/><path d="M34.2507847 46.06000134l-4.05814992-2.39430845 1.98849342-1.13628197 4.0581499 2.39430844z"/><path d="M36.1986966 43.82801889l-3.1247754-1.82616745 2.029075-1.13628198 3.1247754 1.82616746z"/><path d="M31.6535687 51.2544332l-7.30466978-4.26105739 2.02907495-1.13628197 7.26408833 4.26105736z"/><path d="M21.4676125 48.65721727l1.98849344-1.13628197 6.12780635 3.5711719-1.98849345 1.136282z"/><path d="M35.9957891 40.33800998l1.3391895-.73046699 2.5972159 1.50151547-1.2986079.77104848z"/><path d="M74.2235612 65.9855173l-3.0030309-1.7450044 2.0290749-1.1768635 3.003031 1.785586z"/><path d="M71.3422748 67.6493588l-4.3828019-2.5566344 2.0290749-1.136282 4.3828019 2.5566344z"/><path d="M65.4985389 70.9770417l-10.2671192-6.0060618 2.0290749-1.136282 10.2671193 6.0060619z"/><path d="M68.4204068 69.3132003l-7.7916478-4.5857094 1.9884935-1.136282 7.8322293 4.5857094z"/><path d="M28.0418155 52.51245995l2.02907495-1.13628198 6.12780635 3.57117192-2.02907495 1.13628197z"/><path d="M34.00729585 52.63420444l-1.82616745-1.05511897 2.02907495-1.13628197 1.82616745 1.05511897z"/><path d="M36.3204411 53.9733936l-1.8261674-1.0551189 2.0290749-1.136282 1.8261675 1.055119z"/><path d="M38.6335866 55.3125831l-1.8261675-1.055119 2.029075-1.1362819 1.8261674 1.0551189z"/><path d="M40.946732 56.6517726l-1.8261674-1.055119 1.9884934-1.136282 1.8261675 1.055119z"/><path d="M43.219296 57.990962l-1.8261675-1.0551189 2.029075-1.136282 1.8261674 1.055119z"/><path d="M45.5324414 59.3301515l-1.8261675-1.055119 2.029075-1.1362819 1.8261675 1.0551189z"/><path d="M47.8455868 60.669341l-1.8261674-1.055119 2.0290749-1.136282 1.8261675 1.055119z"/><path d="M50.1587323 62.0085304l-1.8261675-1.0551189 2.029075-1.136282 1.8261674 1.055119z"/><path d="M52.4718777 63.3477199l-1.8261674-1.055119 1.9884934-1.1362819 1.8261675 1.0551189z"/><path d="M54.7444417 64.7274909l-1.8261675-1.055119 2.029075-1.1768635 1.8261674 1.055119z"/><path d="M34.7783442 49.7123362l-1.8261675-1.05511893 2.029075-1.13628197 1.8261674 1.05511897z"/><path d="M37.0914896 51.0515257l-1.8261674-1.055119 2.0290749-1.13628193 1.8261675 1.05511893z"/><path d="M39.4046351 52.3907152l-1.8261675-1.055119 2.0290749-1.136282 1.8261675 1.055119z"/><path d="M41.7177805 53.7299046l-1.8261675-1.0551189 1.9884935-1.136282 1.8261674 1.055119z"/><path d="M43.9903444 55.0690941l-1.8261674-1.055119 2.0290749-1.1362819 1.8261675 1.0551189z"/><path d="M46.3034899 56.4082836l-1.8261675-1.055119 2.029075-1.136282 1.8261674 1.055119z"/><path d="M48.6166353 57.7474731l-1.8261674-1.055119 2.0290749-1.136282 1.8261675 1.055119z"/><path d="M50.9297808 59.0866625l-1.8261675-1.055119 2.029075-1.1362819 1.8261674 1.0551189z"/><path d="M53.2429262 60.4664335l-1.8261674-1.0957005 1.9884934-1.136282 1.8261675 1.055119z"/><path d="M55.5154902 61.805623l-1.8261675-1.055119 2.029075-1.1768635 1.8261674 1.0957005z"/><path d="M57.8286356 63.1448124l-1.8261675-1.055119 2.029075-1.1768634 1.8261675 1.0551189z"/><path d="M60.141781 64.4840019l-1.8261674-1.055119 2.0290749-1.1768635 1.8261675 1.0957005z"/><path d="M36.5233486 47.3991908l-1.8261674-1.09570047 2.0290749-1.13628197 1.8261675 1.05511897z"/><path d="M38.8364941 48.73838027l-1.8261675-1.09570047 2.029075-1.13628197 1.8261674 1.05511897z"/><path d="M41.1496395 50.0775697l-1.8261674-1.05511894 2.0290749-1.17686347 1.8261675 1.09570048z"/><path d="M43.462785 51.4167592l-1.8261675-1.055119 2.0290749-1.17686344 1.785586 1.09570044z"/><path d="M45.7759304 52.7559487l-1.8261675-1.055119 1.9884935-1.1768635 1.8261674 1.0957005z"/><path d="M48.0484943 54.0951381l-1.8261674-1.0551189 2.0290749-1.1768635 1.8261675 1.0957005z"/><path d="M50.3616398 55.4343276l-1.8261675-1.055119 2.029075-1.1362819 1.8261674 1.0551189z"/><path d="M52.6747852 56.7735171l-1.8261674-1.055119 2.0290749-1.136282 1.8261675 1.055119z"/><path d="M54.9879307 58.1127065l-1.8261675-1.0551189 1.9884935-1.136282 1.8261674 1.055119z"/><path d="M57.2604946 59.451896l-1.8261674-1.055119 2.0290749-1.1362819 1.8261675 1.0551189z"/><path d="M59.5736401 60.7910855l-1.8261675-1.055119 2.029075-1.136282 1.8261674 1.055119z"/><path d="M61.8867855 62.1302749L60.060618 61.075156l2.029075-1.136282 1.8261675 1.055119z"/><path d="M64.1999309 63.4694644l-1.8261674-1.055119 1.9884934-1.1362819 1.8261675 1.0551189z"/><path d="M66.4724949 64.8086539l-1.8261675-1.055119 2.029075-1.136282 1.8261674 1.055119z"/><path d="M38.5118421 45.16720836l-1.8261675-1.05511898 1.9884935-1.13628197 1.8261674 1.05511898z"/><path d="M40.8249875 46.50639783l-1.8261674-1.05511898 1.9884934-1.13628197 1.8261675 1.05511897z"/><path d="M43.138133 47.84558729l-1.8261675-1.05511897 1.9884935-1.13628197 1.8261674 1.05511897z"/><path d="M45.4106969 49.18477676l-1.8261674-1.05511897 2.0290749-1.13628198 1.8261675 1.05511898z"/><path d="M47.7238423 50.5239662l-1.8261674-1.0551189 2.0290749-1.13628202 1.8261675 1.05511902z"/><path d="M50.0369878 51.8631557l-1.8261675-1.055119 2.029075-1.136282 1.7855859 1.055119z"/><path d="M52.3501332 53.2023452l-1.8261674-1.055119 2.0290749-1.136282 1.785586 1.055119z"/><path d="M54.6226972 54.5821161l-1.8261675-1.0957004 2.029075-1.136282 1.8261674 1.055119z"/><path d="M56.9358426 55.9213056l-1.8261674-1.055119 2.0290749-1.1768635 1.8261675 1.055119z"/><path d="M59.2489881 57.2604951l-1.8261675-1.055119 2.029075-1.1768635 1.7855859 1.0957005z"/><path d="M61.5621335 58.5996845l-1.8261674-1.0551189 1.9884934-1.1768635 1.8261675 1.0957005z"/><path d="M63.8346975 59.938874L62.00853 58.883755l2.0290749-1.1768634 1.8261675 1.0957004z"/><path d="M66.1478429 61.2780635l-1.8261675-1.055119 2.029075-1.1768635 1.8261674 1.0957005z"/><path d="M68.4609883 62.6172529l-1.8261674-1.0551189 1.9884934-1.1768635 1.8261675 1.0957005z"/><path d="M70.7335523 63.9564424l-1.8261675-1.055119 2.029075-1.1768634 1.8261674 1.0957004z"/><path d="M49.7934988 65.1738874l-1.8261675-1.055119 1.9884935-1.1768635 1.8261674 1.0957005z"/><path d="M52.1066442 66.5130768l-1.8261674-1.0551189 1.9884934-1.1768635 1.8261675 1.0957005z"/><path d="M54.3792082 67.8522663l-1.8261675-1.055119 2.029075-1.1362819 1.8261674 1.0551189z"/><path d="M56.6923536 69.1914558l-1.8261674-1.055119 2.0290749-1.136282 1.8261675 1.055119z"/><path d="M62.6172525 72.6408832l-5.4379209-3.1653569 1.9884935-1.136282 5.4785023 3.1653569z"/><path d="M34.6565997 56.3677021l2.0290749-1.136282 12.8237537 7.4669958-2.0290749 1.136282z"/><path d="M39.0799831 42.12359593l1.3391894-.73046698 2.597216 1.54209696-1.298608.73046698z"/><path d="M42.164177 43.94976339l1.3391895-.77104848 2.5972159 1.54209696-1.298608.73046698z"/><path d="M45.2483709 45.73534934l1.3391895-.73046698 2.5972159 1.50151547-1.298608.73046698z"/><path d="M48.3325648 47.5209353l1.3391895-.73046698 2.5972159 1.50151546-1.2986079.77104848z"/><path d="M51.4167588 49.30652126l1.3391894-.73046699 2.597216 1.54209693-1.298608.730467z"/><path d="M54.5009527 51.1326887l1.3391895-.7710485 2.5972159 1.542097-1.298608.730467z"/><path d="M57.5851466 52.9182747l1.3391895-.730467 2.5972159 1.5015154-1.298608.730467z"/><path d="M60.6693405 54.7038606l1.3391895-.730467 2.5972159 1.5015155-1.2986079.730467z"/><path d="M63.7535345 56.4894466l1.3391894-.730467 2.597216 1.542097-1.298608.7304669z"/><path d="M66.8377284 58.315614l1.3391894-.7710484 2.597216 1.5420969-1.298608.730467z"/><path d="M69.9219223 60.1012l1.3391895-.730467 2.5972159 1.5015155-1.298608.730467z"/><path d="M73.0061162 61.8867859l1.3391895-.7304669 4.1798944 2.3943084-1.3391895.7710485z"/></g><path fill="#FFF" d="M75.1163547 57.5039841l1.1768634-1.785586-28.0012343-16.1514366-1.136282 1.785586z"/><path fill="#EFF0F2" d="M76.2932181 55.7183981v1.2580265l-1.1768634.5275595 1.1768634-1.785586"/><path fill="#53BA6F" d="M78.8092711 46.5875609L54.4603717 32.6275252l3.5711719-14.1629432L82.380443 32.4246177z"/><path fill="#92DDA6" d="M78.5252006 45.9382569L54.2168827 31.9782212l3.5711719-14.1629431 24.3083179 13.9600356z"/><path d="M64.4434204 35.6711376l-6.2901323-3.6117534.0405815-.2029075c.243489-1.0145375-.2029075-2.2725639-1.055119-2.7189604l-.162326-.081163 1.5826785-6.2495509.162326.081163c.8522114.486978 1.7044229.0405815 1.9884934-1.0145374l.0405815-.2029075 6.1278064 3.5305904-.081163.405815-5.8437359-3.3276829c-.3652335 1.0551189-1.2580265 1.5015154-2.1914009 1.0957004l-1.379771 5.5190839c.8522115.6087225 1.3391895 1.8667489 1.136282 3.0030309l6.0060618 3.4088459-.081163.3652335z" fill="#34A853"/><path d="M75.5221697 42.042433l-6.1683879-3.5305904.081163-.405815 5.8843174 3.3682644c.3652334-1.055119 1.2986079-1.542097 2.2319824-1.0957005l1.379771-5.5190839c-.892793-.5681409-1.379771-1.8667489-1.1768635-3.0436124l-5.7625729-3.3276829.081163-.405815 6.0872249 3.4900089-.0405815.2029075c-.243489 1.0145375.2029075 2.272564 1.055119 2.7189605l.2029075.1217445-1.5826785 6.2901323-.2029075-.1217445c-.8522115-.486978-1.7450045-.0405815-1.9884934 1.0145375l-.081163.243489z" fill="#34A853"/><ellipse fill="#34A853" transform="rotate(-13.091 68.173023 31.811918)" cx="68.1730225" cy="31.8119182" rx="3.53055202" ry="4.74798375"/><path d="M60.993993 29.3810053c-.649304-.3652335-1.0145375-1.3391895-.81163-2.1508195.2029075-.8116299.892793-1.1768634 1.542097-.7710484.649304.3652334 1.0145375 1.3391894.81163 2.1508194-.2029075.81163-.892793 1.1768635-1.542097.7710485zm.649304-2.516053c-.486978-.2840705-1.0145375 0-1.136282.568141-.162326.6087225.1217445 1.298608.6087225 1.5826785.486978.2840705 1.0145375 0 1.136282-.568141.162326-.6087225-.1217445-1.3391895-.6087225-1.5826785z" fill="#34A853"/><ellipse fill="#34A853" transform="rotate(-13.091 74.828226 35.624509)" cx="74.828226" cy="35.6245095" rx="1.0551075" ry="1.42033702"/><path d="M75.1975177 22.9285469c-3.0436125 11.9715422 2.3537269 26.1750669 12.0527052 31.7347323h.0405815l6.9800178-26.4185559-17.4094631-9.9830487c-.6898855 1.4609339-1.2580264 3.0030309-1.6638414 4.6668723z" fill="#DD3A33"/><path d="M10.9570047 54.3386272v1.6638414c9.9830488-.081163 17.4500446-.5275595 17.4500446-1.0145374 0-.486978-7.5075773-.892793-17.4500446-1.0145375.0405815 0 0 .2029075 0 .3652335z" fill="#EFF0F2" opacity=".35"/><path d="M82.0963725 36.7668381c.162326-.6087225.3652335-1.055119.5275595-1.379771.2029075-.324652.4463965-.6087225.8522115-.8927929l.9739559-.649304c.405815-.324652.730467-.7710485.8522115-1.3391895.162326-.5275595.162326-1.0145375.081163-1.4203525-.1217445-.405815-.324652-.7304669-.6898855-.9333744-.3652335-.2029075-.6898855-.2029075-.9739559-.081163-.2840705.1217445-.486978.486978-.6087225.9333744l-.9333745-.5275594c.243489-.81163.6087225-1.379771 1.136282-1.6638415.5275594-.2840705 1.0957004-.243489 1.7450044.081163.649304.3652335 1.0957005.9333745 1.298608 1.62326.2029075.7304669.2029075 1.5420969-.0405815 2.4348899-.243489.892793-.7710485 1.62326-1.5826785 2.1914009l-.7710485.5275595c-.3652334.2840705-.6493039.81163-.8522114 1.5826785l-1.0145375-.486978zm-.6898855 2.4348899c.081163-.243489.162326-.4058149.2840705-.4869779.1217445-.1217445.2840705-.1217445.486978 0 .2029075.1217444.324652.2840704.3652335.4869779.0405815.2029075.0405815.4463965 0 .649304-.081163.243489-.162326.405815-.2840705.486978-.1217445.081163-.2840705.081163-.486978 0-.2029075-.1217445-.324652-.243489-.3652335-.486978-.081163-.2029075-.081163-.405815 0-.649304z" fill="#FFF"/></g></svg>
