<svg xmlns="http://www.w3.org/2000/svg" version="1.1" xmlns:xlink="http://www.w3.org/1999/xlink" width="22" height="22" x="0" y="0" viewBox="0 0 512 512" style="enable-background:new 0 0 512 512" xml:space="preserve" class=""><g><path fill-rule="evenodd" d="M309.514 201.375c56.887 0 103.004 46.116 103.004 103.004 0 56.887-46.116 103.004-103.004 103.004-56.887 0-103.004-46.117-103.004-103.004 0-56.888 46.117-103.004 103.004-103.004zm78.452 192.476 20.052 19.656-1.079 1.112c-3.586 3.695-3.497 9.655.2 13.241l56.565 54.888c3.696 3.586 9.654 3.498 13.241-.198l20.422-21.047c3.587-3.696 3.496-9.654-.199-13.241l-56.565-54.889c-3.695-3.587-9.655-3.497-13.241.198l-1.249 1.287-20.585-20.176a119.792 119.792 0 0 1-17.562 19.169zM100.609 9.683c-54.036 4.086-96.61 49.225-96.61 104.308 0 57.774 46.835 104.61 104.61 104.61 16.227 0 31.592-3.694 45.297-10.289l-51.927-89.842a7.961 7.961 0 0 1-1.37-4.478zm242.209 408.968v76.731c0 5.508-4.492 10-10 10h-33.219c-5.508 0-10-4.492-10-10v-73.669a119.712 119.712 0 0 0 19.916 1.669c11.56 0 22.734-1.655 33.303-4.731zm2.418-362.539a8 8 0 0 1 0-16h77.383a8 8 0 0 1 0 16zm-71.22 115.756h26.98c6.2 0 11.257 5.057 11.257 11.257v2.284c-.911-.02-1.823-.035-2.739-.035-16.598 0-32.401 3.403-46.755 9.543v-11.792c0-6.2 5.057-11.257 11.257-11.257zm101.52 33.495a119.633 119.633 0 0 1 19.229 16h27.854a8 8 0 0 0 0-16zm-30.3-17.495a8 8 0 0 1 0-16h154.765a8 8 0 0 1 0 16zm-71.22-98.625h26.98c6.2 0 11.257 5.057 11.257 11.257v26.98c0 6.2-5.057 11.257-11.257 11.257h-26.98c-6.2 0-11.257-5.057-11.257-11.257V100.5c0-6.2 5.057-11.257 11.257-11.257zm71.22 49.495a8 8 0 0 1 0-16h77.383a8 8 0 0 1 0 16zm0-33.495a8 8 0 0 1 0-16h154.765a8 8 0 0 1 0 16zm-71.22-98.625h26.98c6.2 0 11.257 5.057 11.257 11.257v26.98c0 6.2-5.057 11.257-11.257 11.257h-26.98c-6.2 0-11.257-5.057-11.257-11.257v-26.98c0-6.2 5.057-11.257 11.257-11.257zm71.22 16a8 8 0 0 1 0-16h154.765a8 8 0 0 1 0 16zm-99.004 382.549c-20.641-12.987-37.012-32.138-46.532-54.869-3.888 1.372-6.688 5.086-6.688 9.433v135.651c0 5.508 4.492 10 10 10h33.219c5.508 0 10-4.492 10-10v-90.215zM106.427 276.028h33.219c5.508 0 10 4.492 10 10v209.354c0 5.508-4.492 10-10 10h-33.219c-5.508 0-10-4.492-10-10V286.028c0-5.508 4.492-10 10-10zm-92.426 46.704H47.22c5.508 0 10 4.492 10 9.999v162.651c0 5.508-4.492 10-10 10H14.001c-5.508 0-10-4.492-10-10V332.731c0-5.507 4.492-9.999 10-9.999zm153.715-122.426-45.265-78.315h90.464c-2.46 32.517-19.786 60.879-45.199 78.315zm45.198-94.315h-96.305V9.683c51.396 3.886 92.418 44.912 96.305 96.308zm96.6 131.385c-18.502 0-35.253 7.499-47.377 19.623s-19.623 28.875-19.623 47.377c0 17.051 6.369 32.614 16.857 44.44 6.508-21.525 26.498-37.207 50.144-37.207 23.651 0 43.639 15.678 50.142 37.208 10.488-11.826 16.858-27.389 16.858-44.44 0-18.502-7.499-35.253-19.623-47.377-12.125-12.125-28.876-19.624-47.378-19.624zm0 17.313c-14.625 0-26.481 11.856-26.481 26.481s11.856 26.481 26.481 26.481 26.481-11.856 26.481-26.481-11.856-26.481-26.481-26.481zm-58.689-9.002c-15.021 15.02-24.311 35.77-24.311 58.689s9.29 43.669 24.311 58.689c15.02 15.02 35.77 24.31 58.689 24.31s43.669-9.291 58.689-24.31c15.021-15.02 24.311-35.77 24.311-58.689s-9.29-43.669-24.311-58.689c-15.02-15.02-35.77-24.311-58.689-24.311s-43.67 9.291-58.689 24.311z" clip-rule="evenodd" fill="#000000" opacity="1" data-original="#000000" class=""></path></g></svg>